<?xml version="1.0" ?><!DOCTYPE svg  PUBLIC '-//W3C//DTD SVG 1.1//EN'  'http://www.w3.org/Graphics/SVG/1.1/DTD/svg11.dtd'><svg enable-background="new 0 0 512 512" id="Layer_1" version="1.1" viewBox="0 0 512 512" xml:space="preserve" xmlns="http://www.w3.org/2000/svg" xmlns:xlink="http://www.w3.org/1999/xlink"><g><path d="M418.5,250v21c0,4.7-3.9,8.6-8.6,8.6h-33.2c-4.7,0-8.6-3.9-8.6-8.6v-8L256,292l-108.4-28v7   c0,4.7-3.9,8.6-8.6,8.6h-33.2c-4.7,0-8.6-3.9-8.6-8.6v-20l-80.9-21.5v169.3c0,24.4,20.4,45.4,47.7,45.4h383.9   c27.3,0,47.4-21.1,47.4-45.4V229.5L418.5,250z" fill="rgb(20, 223, 155)"/><path d="M459.4,108.5H52.6c-28.9,0-52.5,21.1-52.5,47v47l97.3,25.2v-11.9c0-4.7,3.9-8.6,8.6-8.6h33.2   c4.7,0,8.6,3.9,8.6,8.6v24.9l108.4,28l112.2-29v-23.9c0-4.7,3.9-8.6,8.6-8.6h33.2c4.7,0,8.6,3.9,8.6,8.6v10.9l93.5-24.2v-47   C512,129.6,488.3,108.5,459.4,108.5z" fill="rgb(20, 223, 155)"/><path d="M156.7,92V71.4c0-18.6,15.2-33.9,33.9-33.9h130.7c18.6,0,33.9,15.2,33.9,33.9V92h34.7V58.7   c0-27.1-21-48.7-48.1-48.7H170.5C143.4,10,122,31.4,122,58.5v33.3L156.7,92z" fill="rgb(20, 223, 155)"/></g></svg>